<?xml version="1.0" encoding="UTF-8" standalone="no"?>
<svg
   xmlns:dc="http://purl.org/dc/elements/1.1/"
   xmlns:cc="http://creativecommons.org/ns#"
   xmlns:rdf="http://www.w3.org/1999/02/22-rdf-syntax-ns#"
   xmlns:svg="http://www.w3.org/2000/svg"
   xmlns="http://www.w3.org/2000/svg"
   xmlns:xlink="http://www.w3.org/1999/xlink"
   xmlns:sodipodi="http://sodipodi.sourceforge.net/DTD/sodipodi-0.dtd"
   xmlns:inkscape="http://www.inkscape.org/namespaces/inkscape"
   width="1024px"
   height="1024px"
   version="1.1"
   viewBox="0 0 1024 1024"
   id="svg26"
   sodipodi:docname="flycast-boot-peek.svg"
   inkscape:version="0.92.4 (5da689c313, 2019-01-14)"
   enable-background="new">
  <metadata
     id="metadata30">
    <rdf:RDF>
      <cc:Work
         rdf:about="">
        <dc:format>image/svg+xml</dc:format>
        <dc:type
           rdf:resource="http://purl.org/dc/dcmitype/StillImage" />
        <dc:title>Icon-App-Name.iconset/icon_512x512@2x</dc:title>
      </cc:Work>
    </rdf:RDF>
  </metadata>
  <sodipodi:namedview
     pagecolor="#ffffff"
     bordercolor="#666666"
     borderopacity="1"
     objecttolerance="10"
     gridtolerance="10"
     guidetolerance="10"
     inkscape:pageopacity="0"
     inkscape:pageshadow="2"
     inkscape:window-width="1920"
     inkscape:window-height="1017"
     id="namedview28"
     showgrid="false"
     inkscape:zoom="0.54042696"
     inkscape:cx="587.25944"
     inkscape:cy="564.3775"
     inkscape:window-x="-8"
     inkscape:window-y="-8"
     inkscape:window-maximized="1"
     inkscape:current-layer="svg26" />
  <title
     id="title2">Icon-App-Name.iconset/icon_512x512@2x</title>
  <defs
     id="defs16">
    <linearGradient
       inkscape:collect="always"
       id="linearGradient944">
      <stop
         style="stop-color:#5f366f;stop-opacity:1"
         offset="0"
         id="stop940" />
      <stop
         style="stop-color:#000000;stop-opacity:0;"
         offset="1"
         id="stop942" />
    </linearGradient>
    <linearGradient
       inkscape:collect="always"
       id="linearGradient844">
      <stop
         style="stop-color:#f5f1fe;stop-opacity:1"
         offset="0"
         id="stop840" />
      <stop
         style="stop-color:#ffffff;stop-opacity:1"
         offset="1"
         id="stop842" />
    </linearGradient>
    <path
       id="path-1"
       d="m824 256.63c0-9.782 0-19.565-0.056099-29.348-0.048999-8.241-0.144-16.48-0.368-24.717-0.484-17.953-1.543-36.06-4.736-53.813-3.238-18.009-8.5259-34.77-16.859-51.133-8.1919-16.083-18.893-30.8-31.661-43.559-12.765-12.759-27.486-23.453-43.575-31.64-16.38-8.335-33.159-13.621-51.188-16.858-17.755-3.188-35.867-4.245-53.82-4.73-8.2429-0.223-16.486-0.317-24.731-0.368-9.7879-0.06-19.576-0.055-29.364-0.055l-113.65-0.407h-84.999l-111.64 0.407c-9.8069 0-19.614-5e-3 -29.421 0.055-8.2619 0.051-16.52 0.145-24.779 0.368-17.995 0.485-36.148 1.543-53.945 4.735-18.053 3.236-34.857 8.52-51.259 16.849-16.123 8.188-30.876 18.883-43.668 31.644-12.79 12.758-23.511 27.472-31.718 43.552-8.3559 16.371-13.654 33.142-16.9 51.161-3.196 17.746-4.255 35.847-4.742 53.792-0.222 8.238-0.318 16.477-0.368 24.717-0.06 9.784-0.563 21.937-0.563 31.72v196l0.508 112.43c0 9.796-4e-3 19.592 0.055 29.388 0.05 8.252 0.146 16.502 0.369 24.751 0.486 17.976 1.547 36.109 4.746 53.886 3.245 18.033 8.5419 34.818 16.891 51.202 8.2079 16.106 18.931 30.842 31.722 43.619s27.54 23.485 43.66 31.684c16.412 8.346 33.224 13.639 51.288 16.88 17.789 3.193 35.936 4.252 53.924 4.737 8.2589 0.223 16.518 0.318 24.78 0.368 9.8069 0.059 19.613 0.059 29.42 0.059h310.29c9.7879 0 19.576 0 29.364-0.059 8.2449-0.05 16.488-0.145 24.731-0.368 17.96-0.486 36.078-1.546 53.841-4.741 18.018-3.241 34.789-8.532 51.16-16.873 16.092-8.198 30.816-18.908 43.582-31.687 12.766-12.775 23.466-27.509 31.658-43.612 8.3379-16.392 13.626-33.185 16.866-51.23 3.19-17.77 4.248-35.896 4.733-53.865 0.223-8.25 0.318-16.5 0.367-24.751 0.056099-9.796 0.056099-19.592 0.056099-29.388v-310.8" />
    <filter
       id="filter-3"
       x="-2.4%"
       y="-1.2%"
       width="104.9%"
       height="104.9%">
      <feOffset
         dx="0"
         dy="10"
         in="SourceAlpha"
         result="shadowOffsetOuter1"
         id="feOffset5" />
      <feGaussianBlur
         in="shadowOffsetOuter1"
         result="shadowBlurOuter1"
         stdDeviation="5"
         id="feGaussianBlur7" />
      <feColorMatrix
         in="shadowBlurOuter1"
         values="0 0 0 0 0   0 0 0 0 0   0 0 0 0 0  0 0 0 0.3 0"
         id="feColorMatrix9" />
    </filter>
    <mask
       fill="white"
       id="mask14">
      <use
         width="100%"
         height="100%"
         xlink:href="#path-1"
         id="use12" />
    </mask>
    <filter
       id="filter-3-3"
       x="-0.024"
       y="-0.012"
       width="1.049"
       height="1.049">
      <feOffset
         dx="0"
         dy="10"
         in="SourceAlpha"
         result="shadowOffsetOuter1"
         id="feOffset5-1" />
      <feGaussianBlur
         in="shadowOffsetOuter1"
         result="shadowBlurOuter1"
         stdDeviation="5"
         id="feGaussianBlur7-3" />
      <feColorMatrix
         in="shadowBlurOuter1"
         values="0 0 0 0 0   0 0 0 0 0   0 0 0 0 0  0 0 0 0.3 0"
         id="feColorMatrix9-4" />
    </filter>
    <filter
       inkscape:collect="always"
       style="color-interpolation-filters:sRGB"
       id="filter4765"
       x="-0.014399938"
       width="1.0287999"
       y="-0.014400062"
       height="1.0288001">
      <feGaussianBlur
         inkscape:collect="always"
         stdDeviation="4.9440453"
         id="feGaussianBlur4767" />
    </filter>
    <linearGradient
       inkscape:collect="always"
       xlink:href="#linearGradient844"
       id="linearGradient846"
       x1="522.85468"
       y1="99.947388"
       x2="522.85468"
       y2="921.35864"
       gradientUnits="userSpaceOnUse" />
    <linearGradient
       inkscape:collect="always"
       xlink:href="#linearGradient883"
       id="linearGradient885"
       x1="350.47696"
       y1="765.45105"
       x2="644.14081"
       y2="319.38806"
       gradientUnits="userSpaceOnUse"
       gradientTransform="matrix(0.68273418,0,0,0.68273418,166.73622,161.57294)" />
    <linearGradient
       inkscape:collect="always"
       id="linearGradient883">
      <stop
         style="stop-color:#3d1a88;stop-opacity:1"
         offset="0"
         id="stop879" />
      <stop
         style="stop-color:#5d00be;stop-opacity:1"
         offset="1"
         id="stop881" />
    </linearGradient>
    <linearGradient
       inkscape:collect="always"
       xlink:href="#linearGradient874"
       id="linearGradient876"
       x1="592.36273"
       y1="230.65422"
       x2="446.61685"
       y2="776.99493"
       gradientUnits="userSpaceOnUse"
       gradientTransform="matrix(0.68273418,0,0,0.68273418,166.73622,161.57294)" />
    <linearGradient
       inkscape:collect="always"
       id="linearGradient874">
      <stop
         style="stop-color:#ef75f5;stop-opacity:1"
         offset="0"
         id="stop870" />
      <stop
         id="stop1976"
         offset="0.5"
         style="stop-color:#8b56ea;stop-opacity:1" />
      <stop
         style="stop-color:#926cfe;stop-opacity:1"
         offset="1"
         id="stop872" />
    </linearGradient>
    <clipPath
       clipPathUnits="userSpaceOnUse"
       id="clipPath2025">
      <path
         d="m 924.0001,356.63 c 0,-9.782 0,-19.565 -0.0561,-29.348 -0.049,-8.241 -0.144,-16.48 -0.368,-24.717 -0.484,-17.953 -1.543,-36.06 -4.736,-53.813 -3.238,-18.009 -8.5259,-34.77 -16.859,-51.133 -8.1919,-16.083 -18.893,-30.8 -31.661,-43.559 -12.765,-12.759 -27.486,-23.453 -43.575,-31.64 -16.38,-8.335 -33.159,-13.621 -51.188,-16.858 -17.755,-3.188 -35.867,-4.245 -53.82,-4.73 -8.2429,-0.223 -16.486,-0.317 -24.731,-0.368 -9.7879,-0.06 -19.576,-0.055 -29.364,-0.055 l -113.65,-0.407 h -84.999 l -111.64,0.407 c -9.8069,0 -19.614,-0.005 -29.421,0.055 -8.2619,0.051 -16.52,0.145 -24.779,0.368 -17.995,0.485 -36.148,1.543 -53.945,4.735 -18.053,3.236 -34.857,8.52 -51.259,16.849 -16.123,8.188 -30.876,18.883 -43.668,31.644 -12.79,12.758 -23.511,27.472 -31.718,43.552 -8.3559,16.371 -13.654,33.142 -16.9,51.161 -3.196,17.746 -4.255,35.847 -4.742,53.792 -0.222,8.238 -0.318,16.477 -0.368,24.717 -0.06,9.784 -0.563,21.937 -0.563,31.72 v 196 l 0.508,112.43 c 0,9.796 -0.004,19.592 0.055,29.388 0.05,8.252 0.146,16.502 0.369,24.751 0.486,17.976 1.547,36.109 4.746,53.886 3.245,18.033 8.5419,34.818 16.891,51.202 8.2079,16.106 18.931,30.842 31.722,43.619 12.791,12.777 27.54,23.485 43.66,31.684 16.412,8.346 33.224,13.639 51.288,16.88 17.789,3.193 35.936,4.252 53.924,4.737 8.2589,0.223 16.518,0.318 24.78,0.368 9.8069,0.059 19.613,0.059 29.42,0.059 h 310.29 c 9.7879,0 19.576,0 29.364,-0.059 8.2449,-0.05 16.488,-0.145 24.731,-0.368 17.96,-0.486 36.078,-1.546 53.841,-4.741 18.018,-3.241 34.789,-8.532 51.16,-16.873 16.092,-8.198 30.816,-18.908 43.582,-31.687 12.766,-12.775 23.466,-27.509 31.658,-43.612 8.3379,-16.392 13.626,-33.185 16.866,-51.23 3.19,-17.77 4.248,-35.896 4.733,-53.865 0.223,-8.25 0.318,-16.5 0.367,-24.751 0.0561,-9.796 0.0561,-19.592 0.0561,-29.388 v -310.8"
         style="fill:#ffffff;fill-opacity:1;fill-rule:evenodd;paint-order:stroke fill markers"
         id="path2027"
         inkscape:connector-curvature="0" />
    </clipPath>
    <clipPath
       clipPathUnits="userSpaceOnUse"
       id="clipPath2025-9">
      <path
         d="m 924.0001,356.63 c 0,-9.782 0,-19.565 -0.0561,-29.348 -0.049,-8.241 -0.144,-16.48 -0.368,-24.717 -0.484,-17.953 -1.543,-36.06 -4.736,-53.813 -3.238,-18.009 -8.5259,-34.77 -16.859,-51.133 -8.1919,-16.083 -18.893,-30.8 -31.661,-43.559 -12.765,-12.759 -27.486,-23.453 -43.575,-31.64 -16.38,-8.335 -33.159,-13.621 -51.188,-16.858 -17.755,-3.188 -35.867,-4.245 -53.82,-4.73 -8.2429,-0.223 -16.486,-0.317 -24.731,-0.368 -9.7879,-0.06 -19.576,-0.055 -29.364,-0.055 l -113.65,-0.407 h -84.999 l -111.64,0.407 c -9.8069,0 -19.614,-0.005 -29.421,0.055 -8.2619,0.051 -16.52,0.145 -24.779,0.368 -17.995,0.485 -36.148,1.543 -53.945,4.735 -18.053,3.236 -34.857,8.52 -51.259,16.849 -16.123,8.188 -30.876,18.883 -43.668,31.644 -12.79,12.758 -23.511,27.472 -31.718,43.552 -8.3559,16.371 -13.654,33.142 -16.9,51.161 -3.196,17.746 -4.255,35.847 -4.742,53.792 -0.222,8.238 -0.318,16.477 -0.368,24.717 -0.06,9.784 -0.563,21.937 -0.563,31.72 v 196 l 0.508,112.43 c 0,9.796 -0.004,19.592 0.055,29.388 0.05,8.252 0.146,16.502 0.369,24.751 0.486,17.976 1.547,36.109 4.746,53.886 3.245,18.033 8.5419,34.818 16.891,51.202 8.2079,16.106 18.931,30.842 31.722,43.619 12.791,12.777 27.54,23.485 43.66,31.684 16.412,8.346 33.224,13.639 51.288,16.88 17.789,3.193 35.936,4.252 53.924,4.737 8.2589,0.223 16.518,0.318 24.78,0.368 9.8069,0.059 19.613,0.059 29.42,0.059 h 310.29 c 9.7879,0 19.576,0 29.364,-0.059 8.2449,-0.05 16.488,-0.145 24.731,-0.368 17.96,-0.486 36.078,-1.546 53.841,-4.741 18.018,-3.241 34.789,-8.532 51.16,-16.873 16.092,-8.198 30.816,-18.908 43.582,-31.687 12.766,-12.775 23.466,-27.509 31.658,-43.612 8.3379,-16.392 13.626,-33.185 16.866,-51.23 3.19,-17.77 4.248,-35.896 4.733,-53.865 0.223,-8.25 0.318,-16.5 0.367,-24.751 0.0561,-9.796 0.0561,-19.592 0.0561,-29.388 v -310.8"
         style="fill:#ffffff;fill-opacity:1;fill-rule:evenodd;paint-order:stroke fill markers"
         id="path2027-4"
         inkscape:connector-curvature="0" />
    </clipPath>
    <clipPath
       clipPathUnits="userSpaceOnUse"
       id="clipPath990">
      <path
         d="m 987.44606,367.80653 c 0,-11.29472 0,-22.59059 -0.0648,-33.88646 -0.0566,-9.51541 -0.16627,-19.02851 -0.42491,-28.53931 -0.55885,-20.7293 -1.78162,-41.63642 -5.46839,-62.13479 -3.73874,-20.79397 -9.84437,-40.14694 -19.46613,-59.04036 -9.45872,-18.57012 -21.81466,-35.563 -36.55714,-50.29509 C 910.7257,119.17843 893.7282,106.83068 875.15115,97.377621 856.2381,87.753673 836.86435,81.650231 816.04729,77.912652 795.54661,74.23165 774.63372,73.011193 753.90441,72.451191 c -9.5176,-0.257486 -19.03544,-0.366022 -28.55547,-0.424909 -11.30153,-0.06928 -22.60329,-0.0635 -33.90493,-0.0635 l -131.22517,-0.46994 h -98.14349 l -128.90433,0.46994 c -11.32347,0 -22.64716,-0.0058 -33.97075,0.0635 -9.53954,0.05889 -19.0747,0.167423 -28.61089,0.424909 -20.7778,0.560002 -41.73803,1.781614 -62.28721,5.467234 -20.84477,3.736424 -40.24739,9.837557 -59.18584,19.454578 -18.61631,9.454217 -35.65076,21.803117 -50.420947,36.537517 -14.767883,14.73094 -27.146809,31.72035 -36.622963,50.28701 -9.64808,18.90266 -15.765494,38.26717 -19.513465,59.07268 -3.690238,20.4903 -4.913005,41.39049 -5.475316,62.11055 -0.256331,9.51195 -0.367177,19.02505 -0.424909,28.53931 -0.06928,11.29703 -0.650064,25.3294 -0.650064,36.62527 v 226.31001 l 0.586559,129.8165 c 0,11.31088 -0.0046,22.62176 0.0635,33.93264 0.05773,9.52811 0.168578,19.05392 0.426063,28.57857 0.561157,20.75586 1.786233,41.693 5.479936,62.21908 3.746816,20.82168 9.862844,40.20236 19.503072,59.12003 9.477194,18.59668 21.858545,35.61149 36.627582,50.36437 14.769042,14.75287 31.798862,27.11678 50.411702,36.5837 18.95,9.63666 38.36187,15.74816 59.21933,19.49036 20.53994,3.6868 41.49324,4.9096 62.26297,5.4696 9.53608,0.2574 19.07238,0.3671 28.61205,0.4249 11.32347,0.068 22.64601,0.068 33.96958,0.068 h 358.27414 c 11.30153,0 22.6033,0 33.90494,-0.068 9.51991,-0.058 19.03776,-0.1675 28.55548,-0.4249 20.73738,-0.5612 41.6572,-1.7851 62.16711,-5.4742 20.80436,-3.7422 40.16889,-9.8514 59.07154,-19.4823 18.58051,-9.46576 35.58148,-21.83198 50.32164,-36.58716 14.74018,-14.75057 27.09485,-31.76308 36.55368,-50.35629 9.6273,-18.92691 15.73317,-38.31682 19.47421,-59.15235 3.68331,-20.51801 4.90492,-41.44706 5.46493,-62.19484 0.25748,-9.52581 0.36717,-19.05161 0.42375,-28.57857 0.0648,-11.31088 0.0648,-22.62176 0.0648,-33.93264 V 367.80884"
         style="fill:#ffffff;fill-opacity:1;fill-rule:evenodd;stroke-width:1.15464282;paint-order:stroke fill markers"
         id="path992"
         inkscape:connector-curvature="0" />
    </clipPath>
    <clipPath
       clipPathUnits="userSpaceOnUse"
       id="clipPath1000">
      <path
         d="m 987.44606,367.80653 c 0,-11.29472 0,-22.59059 -0.0648,-33.88646 -0.0566,-9.51541 -0.16627,-19.02851 -0.42491,-28.53931 -0.55885,-20.7293 -1.78162,-41.63642 -5.46839,-62.13479 -3.73874,-20.79397 -9.84437,-40.14694 -19.46613,-59.04036 -9.45872,-18.57012 -21.81466,-35.563 -36.55714,-50.29509 C 910.7257,119.17843 893.7282,106.83068 875.15115,97.377621 856.2381,87.753673 836.86435,81.650231 816.04729,77.912652 795.54661,74.23165 774.63372,73.011193 753.90441,72.451191 c -9.5176,-0.257486 -19.03544,-0.366022 -28.55547,-0.424909 -11.30153,-0.06928 -22.60329,-0.0635 -33.90493,-0.0635 l -131.22517,-0.46994 h -98.14349 l -128.90433,0.46994 c -11.32347,0 -22.64716,-0.0058 -33.97075,0.0635 -9.53954,0.05889 -19.0747,0.167423 -28.61089,0.424909 -20.7778,0.560002 -41.73803,1.781614 -62.28721,5.467234 -20.84477,3.736424 -40.24739,9.837557 -59.18584,19.454578 -18.61631,9.454217 -35.65076,21.803117 -50.420947,36.537517 -14.767883,14.73094 -27.146809,31.72035 -36.622963,50.28701 -9.64808,18.90266 -15.765494,38.26717 -19.513465,59.07268 -3.690238,20.4903 -4.913005,41.39049 -5.475316,62.11055 -0.256331,9.51195 -0.367177,19.02505 -0.424909,28.53931 -0.06928,11.29703 -0.650064,25.3294 -0.650064,36.62527 v 226.31001 l 0.586559,129.8165 c 0,11.31088 -0.0046,22.62176 0.0635,33.93264 0.05773,9.52811 0.168578,19.05392 0.426063,28.57857 0.561157,20.75586 1.786233,41.693 5.479936,62.21908 3.746816,20.82168 9.862844,40.20236 19.503072,59.12003 9.477194,18.59668 21.858545,35.61149 36.627582,50.36437 14.769042,14.75287 31.798862,27.11678 50.411702,36.5837 18.95,9.63666 38.36187,15.74816 59.21933,19.49036 20.53994,3.6868 41.49324,4.9096 62.26297,5.4696 9.53608,0.2574 19.07238,0.3671 28.61205,0.4249 11.32347,0.068 22.64601,0.068 33.96958,0.068 h 358.27414 c 11.30153,0 22.6033,0 33.90494,-0.068 9.51991,-0.058 19.03776,-0.1675 28.55548,-0.4249 20.73738,-0.5612 41.6572,-1.7851 62.16711,-5.4742 20.80436,-3.7422 40.16889,-9.8514 59.07154,-19.4823 18.58051,-9.46576 35.58148,-21.83198 50.32164,-36.58716 14.74018,-14.75057 27.09485,-31.76308 36.55368,-50.35629 9.6273,-18.92691 15.73317,-38.31682 19.47421,-59.15235 3.68331,-20.51801 4.90492,-41.44706 5.46493,-62.19484 0.25748,-9.52581 0.36717,-19.05161 0.42375,-28.57857 0.0648,-11.31088 0.0648,-22.62176 0.0648,-33.93264 V 367.80884"
         style="fill:#ffffff;fill-opacity:1;fill-rule:evenodd;stroke-width:1.15464282;paint-order:stroke fill markers"
         id="path1002"
         inkscape:connector-curvature="0" />
    </clipPath>
    <linearGradient
       inkscape:collect="always"
       xlink:href="#linearGradient944"
       id="linearGradient946"
       x1="388.0022"
       y1="584.77374"
       x2="748.47998"
       y2="765.62512"
       gradientUnits="userSpaceOnUse" />
    <filter
       inkscape:collect="always"
       style="color-interpolation-filters:sRGB"
       id="filter1040"
       x="-0.056515601"
       width="1.1130312"
       y="-0.15537807"
       height="1.3107561">
      <feGaussianBlur
         inkscape:collect="always"
         stdDeviation="14.835046"
         id="feGaussianBlur1042" />
    </filter>
    <linearGradient
       inkscape:collect="always"
       xlink:href="#linearGradient2201"
       id="linearGradient2203"
       x1="517.45068"
       y1="911.90161"
       x2="517.45068"
       y2="109.40443"
       gradientUnits="userSpaceOnUse" />
    <linearGradient
       inkscape:collect="always"
       id="linearGradient2201">
      <stop
         style="stop-color:#dec1ff;stop-opacity:1"
         offset="0"
         id="stop2197" />
      <stop
         id="stop2205"
         offset="0.5"
         style="stop-color:#2b4587;stop-opacity:0.4299517" />
      <stop
         style="stop-color:#cfc9ff;stop-opacity:1"
         offset="1"
         id="stop2199" />
    </linearGradient>
    <clipPath
       clipPathUnits="userSpaceOnUse"
       id="clipPath2025-8">
      <path
         d="m 924.0001,356.63 c 0,-9.782 0,-19.565 -0.0561,-29.348 -0.049,-8.241 -0.144,-16.48 -0.368,-24.717 -0.484,-17.953 -1.543,-36.06 -4.736,-53.813 -3.238,-18.009 -8.5259,-34.77 -16.859,-51.133 -8.1919,-16.083 -18.893,-30.8 -31.661,-43.559 -12.765,-12.759 -27.486,-23.453 -43.575,-31.64 -16.38,-8.335 -33.159,-13.621 -51.188,-16.858 -17.755,-3.188 -35.867,-4.245 -53.82,-4.73 -8.2429,-0.223 -16.486,-0.317 -24.731,-0.368 -9.7879,-0.06 -19.576,-0.055 -29.364,-0.055 l -113.65,-0.407 h -84.999 l -111.64,0.407 c -9.8069,0 -19.614,-0.005 -29.421,0.055 -8.2619,0.051 -16.52,0.145 -24.779,0.368 -17.995,0.485 -36.148,1.543 -53.945,4.735 -18.053,3.236 -34.857,8.52 -51.259,16.849 -16.123,8.188 -30.876,18.883 -43.668,31.644 -12.79,12.758 -23.511,27.472 -31.718,43.552 -8.3559,16.371 -13.654,33.142 -16.9,51.161 -3.196,17.746 -4.255,35.847 -4.742,53.792 -0.222,8.238 -0.318,16.477 -0.368,24.717 -0.06,9.784 -0.563,21.937 -0.563,31.72 v 196 l 0.508,112.43 c 0,9.796 -0.004,19.592 0.055,29.388 0.05,8.252 0.146,16.502 0.369,24.751 0.486,17.976 1.547,36.109 4.746,53.886 3.245,18.033 8.5419,34.818 16.891,51.202 8.2079,16.106 18.931,30.842 31.722,43.619 12.791,12.777 27.54,23.485 43.66,31.684 16.412,8.346 33.224,13.639 51.288,16.88 17.789,3.193 35.936,4.252 53.924,4.737 8.2589,0.223 16.518,0.318 24.78,0.368 9.8069,0.059 19.613,0.059 29.42,0.059 h 310.29 c 9.7879,0 19.576,0 29.364,-0.059 8.2449,-0.05 16.488,-0.145 24.731,-0.368 17.96,-0.486 36.078,-1.546 53.841,-4.741 18.018,-3.241 34.789,-8.532 51.16,-16.873 16.092,-8.198 30.816,-18.908 43.582,-31.687 12.766,-12.775 23.466,-27.509 31.658,-43.612 8.3379,-16.392 13.626,-33.185 16.866,-51.23 3.19,-17.77 4.248,-35.896 4.733,-53.865 0.223,-8.25 0.318,-16.5 0.367,-24.751 0.0561,-9.796 0.0561,-19.592 0.0561,-29.388 v -310.8"
         style="fill:#ffffff;fill-opacity:1;fill-rule:evenodd;paint-order:stroke fill markers"
         id="path2027-7"
         inkscape:connector-curvature="0" />
    </clipPath>
    <filter
       inkscape:collect="always"
       style="color-interpolation-filters:sRGB"
       id="filter1068"
       x="-0.1103995"
       width="1.220799"
       y="-0.1104005"
       height="1.220801">
      <feGaussianBlur
         inkscape:collect="always"
         stdDeviation="39.893051"
         id="feGaussianBlur1070" />
    </filter>
    <path
       d="m824 256.63c0-9.782 0-19.565-0.056099-29.348-0.048999-8.241-0.144-16.48-0.368-24.717-0.484-17.953-1.543-36.06-4.736-53.813-3.238-18.009-8.5259-34.77-16.859-51.133-8.1919-16.083-18.893-30.8-31.661-43.559-12.765-12.759-27.486-23.453-43.575-31.64-16.38-8.335-33.159-13.621-51.188-16.858-17.755-3.188-35.867-4.245-53.82-4.73-8.2429-0.223-16.486-0.317-24.731-0.368-9.7879-0.06-19.576-0.055-29.364-0.055l-113.65-0.407h-84.999l-111.64 0.407c-9.8069 0-19.614-5e-3 -29.421 0.055-8.2619 0.051-16.52 0.145-24.779 0.368-17.995 0.485-36.148 1.543-53.945 4.735-18.053 3.236-34.857 8.52-51.259 16.849-16.123 8.188-30.876 18.883-43.668 31.644-12.79 12.758-23.511 27.472-31.718 43.552-8.3559 16.371-13.654 33.142-16.9 51.161-3.196 17.746-4.255 35.847-4.742 53.792-0.222 8.238-0.318 16.477-0.368 24.717-0.06 9.784-0.563 21.937-0.563 31.72v196l0.508 112.43c0 9.796-4e-3 19.592 0.055 29.388 0.05 8.252 0.146 16.502 0.369 24.751 0.486 17.976 1.547 36.109 4.746 53.886 3.245 18.033 8.5419 34.818 16.891 51.202 8.2079 16.106 18.931 30.842 31.722 43.619s27.54 23.485 43.66 31.684c16.412 8.346 33.224 13.639 51.288 16.88 17.789 3.193 35.936 4.252 53.924 4.737 8.2589 0.223 16.518 0.318 24.78 0.368 9.8069 0.059 19.613 0.059 29.42 0.059h310.29c9.7879 0 19.576 0 29.364-0.059 8.2449-0.05 16.488-0.145 24.731-0.368 17.96-0.486 36.078-1.546 53.841-4.741 18.018-3.241 34.789-8.532 51.16-16.873 16.092-8.198 30.816-18.908 43.582-31.687 12.766-12.775 23.466-27.509 31.658-43.612 8.3379-16.392 13.626-33.185 16.866-51.23 3.19-17.77 4.248-35.896 4.733-53.865 0.223-8.25 0.318-16.5 0.367-24.751 0.056099-9.796 0.056099-19.592 0.056099-29.388v-310.8"
       id="path-1-0" />
    <filter
       height="104.9%"
       width="104.9%"
       y="-1.2%"
       x="-2.4%"
       id="filter-3-2">
      <feOffset
         id="feOffset5-9"
         result="shadowOffsetOuter1"
         in="SourceAlpha"
         dy="10"
         dx="0" />
      <feGaussianBlur
         id="feGaussianBlur7-8"
         stdDeviation="5"
         result="shadowBlurOuter1"
         in="shadowOffsetOuter1" />
      <feColorMatrix
         id="feColorMatrix9-3"
         values="0 0 0 0 0   0 0 0 0 0   0 0 0 0 0  0 0 0 0.3 0"
         in="shadowBlurOuter1" />
    </filter>
    <mask
       id="mask14-2"
       fill="white">
      <use
         id="use12-3"
         xlink:href="#path-1-0"
         height="100%"
         width="100%" />
    </mask>
    <filter
       height="1.049"
       width="1.049"
       y="-0.012"
       x="-0.024"
       id="filter-3-3-3">
      <feOffset
         id="feOffset5-1-8"
         result="shadowOffsetOuter1"
         in="SourceAlpha"
         dy="10"
         dx="0" />
      <feGaussianBlur
         id="feGaussianBlur7-3-7"
         stdDeviation="5"
         result="shadowBlurOuter1"
         in="shadowOffsetOuter1" />
      <feColorMatrix
         id="feColorMatrix9-4-2"
         values="0 0 0 0 0   0 0 0 0 0   0 0 0 0 0  0 0 0 0.3 0"
         in="shadowBlurOuter1" />
    </filter>
    <clipPath
       id="clipPath2025-1"
       clipPathUnits="userSpaceOnUse">
      <path
         inkscape:connector-curvature="0"
         id="path2027-9"
         style="fill:#ffffff;fill-opacity:1;fill-rule:evenodd;paint-order:stroke fill markers"
         d="m 924.0001,356.63 c 0,-9.782 0,-19.565 -0.0561,-29.348 -0.049,-8.241 -0.144,-16.48 -0.368,-24.717 -0.484,-17.953 -1.543,-36.06 -4.736,-53.813 -3.238,-18.009 -8.5259,-34.77 -16.859,-51.133 -8.1919,-16.083 -18.893,-30.8 -31.661,-43.559 -12.765,-12.759 -27.486,-23.453 -43.575,-31.64 -16.38,-8.335 -33.159,-13.621 -51.188,-16.858 -17.755,-3.188 -35.867,-4.245 -53.82,-4.73 -8.2429,-0.223 -16.486,-0.317 -24.731,-0.368 -9.7879,-0.06 -19.576,-0.055 -29.364,-0.055 l -113.65,-0.407 h -84.999 l -111.64,0.407 c -9.8069,0 -19.614,-0.005 -29.421,0.055 -8.2619,0.051 -16.52,0.145 -24.779,0.368 -17.995,0.485 -36.148,1.543 -53.945,4.735 -18.053,3.236 -34.857,8.52 -51.259,16.849 -16.123,8.188 -30.876,18.883 -43.668,31.644 -12.79,12.758 -23.511,27.472 -31.718,43.552 -8.3559,16.371 -13.654,33.142 -16.9,51.161 -3.196,17.746 -4.255,35.847 -4.742,53.792 -0.222,8.238 -0.318,16.477 -0.368,24.717 -0.06,9.784 -0.563,21.937 -0.563,31.72 v 196 l 0.508,112.43 c 0,9.796 -0.004,19.592 0.055,29.388 0.05,8.252 0.146,16.502 0.369,24.751 0.486,17.976 1.547,36.109 4.746,53.886 3.245,18.033 8.5419,34.818 16.891,51.202 8.2079,16.106 18.931,30.842 31.722,43.619 12.791,12.777 27.54,23.485 43.66,31.684 16.412,8.346 33.224,13.639 51.288,16.88 17.789,3.193 35.936,4.252 53.924,4.737 8.2589,0.223 16.518,0.318 24.78,0.368 9.8069,0.059 19.613,0.059 29.42,0.059 h 310.29 c 9.7879,0 19.576,0 29.364,-0.059 8.2449,-0.05 16.488,-0.145 24.731,-0.368 17.96,-0.486 36.078,-1.546 53.841,-4.741 18.018,-3.241 34.789,-8.532 51.16,-16.873 16.092,-8.198 30.816,-18.908 43.582,-31.687 12.766,-12.775 23.466,-27.509 31.658,-43.612 8.3379,-16.392 13.626,-33.185 16.866,-51.23 3.19,-17.77 4.248,-35.896 4.733,-53.865 0.223,-8.25 0.318,-16.5 0.367,-24.751 0.0561,-9.796 0.0561,-19.592 0.0561,-29.388 v -310.8" />
    </clipPath>
    <clipPath
       id="clipPath2025-9-8"
       clipPathUnits="userSpaceOnUse">
      <path
         inkscape:connector-curvature="0"
         id="path2027-4-4"
         style="fill:#ffffff;fill-opacity:1;fill-rule:evenodd;paint-order:stroke fill markers"
         d="m 924.0001,356.63 c 0,-9.782 0,-19.565 -0.0561,-29.348 -0.049,-8.241 -0.144,-16.48 -0.368,-24.717 -0.484,-17.953 -1.543,-36.06 -4.736,-53.813 -3.238,-18.009 -8.5259,-34.77 -16.859,-51.133 -8.1919,-16.083 -18.893,-30.8 -31.661,-43.559 -12.765,-12.759 -27.486,-23.453 -43.575,-31.64 -16.38,-8.335 -33.159,-13.621 -51.188,-16.858 -17.755,-3.188 -35.867,-4.245 -53.82,-4.73 -8.2429,-0.223 -16.486,-0.317 -24.731,-0.368 -9.7879,-0.06 -19.576,-0.055 -29.364,-0.055 l -113.65,-0.407 h -84.999 l -111.64,0.407 c -9.8069,0 -19.614,-0.005 -29.421,0.055 -8.2619,0.051 -16.52,0.145 -24.779,0.368 -17.995,0.485 -36.148,1.543 -53.945,4.735 -18.053,3.236 -34.857,8.52 -51.259,16.849 -16.123,8.188 -30.876,18.883 -43.668,31.644 -12.79,12.758 -23.511,27.472 -31.718,43.552 -8.3559,16.371 -13.654,33.142 -16.9,51.161 -3.196,17.746 -4.255,35.847 -4.742,53.792 -0.222,8.238 -0.318,16.477 -0.368,24.717 -0.06,9.784 -0.563,21.937 -0.563,31.72 v 196 l 0.508,112.43 c 0,9.796 -0.004,19.592 0.055,29.388 0.05,8.252 0.146,16.502 0.369,24.751 0.486,17.976 1.547,36.109 4.746,53.886 3.245,18.033 8.5419,34.818 16.891,51.202 8.2079,16.106 18.931,30.842 31.722,43.619 12.791,12.777 27.54,23.485 43.66,31.684 16.412,8.346 33.224,13.639 51.288,16.88 17.789,3.193 35.936,4.252 53.924,4.737 8.2589,0.223 16.518,0.318 24.78,0.368 9.8069,0.059 19.613,0.059 29.42,0.059 h 310.29 c 9.7879,0 19.576,0 29.364,-0.059 8.2449,-0.05 16.488,-0.145 24.731,-0.368 17.96,-0.486 36.078,-1.546 53.841,-4.741 18.018,-3.241 34.789,-8.532 51.16,-16.873 16.092,-8.198 30.816,-18.908 43.582,-31.687 12.766,-12.775 23.466,-27.509 31.658,-43.612 8.3379,-16.392 13.626,-33.185 16.866,-51.23 3.19,-17.77 4.248,-35.896 4.733,-53.865 0.223,-8.25 0.318,-16.5 0.367,-24.751 0.0561,-9.796 0.0561,-19.592 0.0561,-29.388 v -310.8" />
    </clipPath>
    <clipPath
       id="clipPath990-6"
       clipPathUnits="userSpaceOnUse">
      <path
         inkscape:connector-curvature="0"
         id="path992-2"
         style="fill:#ffffff;fill-opacity:1;fill-rule:evenodd;stroke-width:1.15464282;paint-order:stroke fill markers"
         d="m 987.44606,367.80653 c 0,-11.29472 0,-22.59059 -0.0648,-33.88646 -0.0566,-9.51541 -0.16627,-19.02851 -0.42491,-28.53931 -0.55885,-20.7293 -1.78162,-41.63642 -5.46839,-62.13479 -3.73874,-20.79397 -9.84437,-40.14694 -19.46613,-59.04036 -9.45872,-18.57012 -21.81466,-35.563 -36.55714,-50.29509 C 910.7257,119.17843 893.7282,106.83068 875.15115,97.377621 856.2381,87.753673 836.86435,81.650231 816.04729,77.912652 795.54661,74.23165 774.63372,73.011193 753.90441,72.451191 c -9.5176,-0.257486 -19.03544,-0.366022 -28.55547,-0.424909 -11.30153,-0.06928 -22.60329,-0.0635 -33.90493,-0.0635 l -131.22517,-0.46994 h -98.14349 l -128.90433,0.46994 c -11.32347,0 -22.64716,-0.0058 -33.97075,0.0635 -9.53954,0.05889 -19.0747,0.167423 -28.61089,0.424909 -20.7778,0.560002 -41.73803,1.781614 -62.28721,5.467234 -20.84477,3.736424 -40.24739,9.837557 -59.18584,19.454578 -18.61631,9.454217 -35.65076,21.803117 -50.420947,36.537517 -14.767883,14.73094 -27.146809,31.72035 -36.622963,50.28701 -9.64808,18.90266 -15.765494,38.26717 -19.513465,59.07268 -3.690238,20.4903 -4.913005,41.39049 -5.475316,62.11055 -0.256331,9.51195 -0.367177,19.02505 -0.424909,28.53931 -0.06928,11.29703 -0.650064,25.3294 -0.650064,36.62527 v 226.31001 l 0.586559,129.8165 c 0,11.31088 -0.0046,22.62176 0.0635,33.93264 0.05773,9.52811 0.168578,19.05392 0.426063,28.57857 0.561157,20.75586 1.786233,41.693 5.479936,62.21908 3.746816,20.82168 9.862844,40.20236 19.503072,59.12003 9.477194,18.59668 21.858545,35.61149 36.627582,50.36437 14.769042,14.75287 31.798862,27.11678 50.411702,36.5837 18.95,9.63666 38.36187,15.74816 59.21933,19.49036 20.53994,3.6868 41.49324,4.9096 62.26297,5.4696 9.53608,0.2574 19.07238,0.3671 28.61205,0.4249 11.32347,0.068 22.64601,0.068 33.96958,0.068 h 358.27414 c 11.30153,0 22.6033,0 33.90494,-0.068 9.51991,-0.058 19.03776,-0.1675 28.55548,-0.4249 20.73738,-0.5612 41.6572,-1.7851 62.16711,-5.4742 20.80436,-3.7422 40.16889,-9.8514 59.07154,-19.4823 18.58051,-9.46576 35.58148,-21.83198 50.32164,-36.58716 14.74018,-14.75057 27.09485,-31.76308 36.55368,-50.35629 9.6273,-18.92691 15.73317,-38.31682 19.47421,-59.15235 3.68331,-20.51801 4.90492,-41.44706 5.46493,-62.19484 0.25748,-9.52581 0.36717,-19.05161 0.42375,-28.57857 0.0648,-11.31088 0.0648,-22.62176 0.0648,-33.93264 V 367.80884" />
    </clipPath>
    <clipPath
       id="clipPath1000-4"
       clipPathUnits="userSpaceOnUse">
      <path
         inkscape:connector-curvature="0"
         id="path1002-0"
         style="fill:#ffffff;fill-opacity:1;fill-rule:evenodd;stroke-width:1.15464282;paint-order:stroke fill markers"
         d="m 987.44606,367.80653 c 0,-11.29472 0,-22.59059 -0.0648,-33.88646 -0.0566,-9.51541 -0.16627,-19.02851 -0.42491,-28.53931 -0.55885,-20.7293 -1.78162,-41.63642 -5.46839,-62.13479 -3.73874,-20.79397 -9.84437,-40.14694 -19.46613,-59.04036 -9.45872,-18.57012 -21.81466,-35.563 -36.55714,-50.29509 C 910.7257,119.17843 893.7282,106.83068 875.15115,97.377621 856.2381,87.753673 836.86435,81.650231 816.04729,77.912652 795.54661,74.23165 774.63372,73.011193 753.90441,72.451191 c -9.5176,-0.257486 -19.03544,-0.366022 -28.55547,-0.424909 -11.30153,-0.06928 -22.60329,-0.0635 -33.90493,-0.0635 l -131.22517,-0.46994 h -98.14349 l -128.90433,0.46994 c -11.32347,0 -22.64716,-0.0058 -33.97075,0.0635 -9.53954,0.05889 -19.0747,0.167423 -28.61089,0.424909 -20.7778,0.560002 -41.73803,1.781614 -62.28721,5.467234 -20.84477,3.736424 -40.24739,9.837557 -59.18584,19.454578 -18.61631,9.454217 -35.65076,21.803117 -50.420947,36.537517 -14.767883,14.73094 -27.146809,31.72035 -36.622963,50.28701 -9.64808,18.90266 -15.765494,38.26717 -19.513465,59.07268 -3.690238,20.4903 -4.913005,41.39049 -5.475316,62.11055 -0.256331,9.51195 -0.367177,19.02505 -0.424909,28.53931 -0.06928,11.29703 -0.650064,25.3294 -0.650064,36.62527 v 226.31001 l 0.586559,129.8165 c 0,11.31088 -0.0046,22.62176 0.0635,33.93264 0.05773,9.52811 0.168578,19.05392 0.426063,28.57857 0.561157,20.75586 1.786233,41.693 5.479936,62.21908 3.746816,20.82168 9.862844,40.20236 19.503072,59.12003 9.477194,18.59668 21.858545,35.61149 36.627582,50.36437 14.769042,14.75287 31.798862,27.11678 50.411702,36.5837 18.95,9.63666 38.36187,15.74816 59.21933,19.49036 20.53994,3.6868 41.49324,4.9096 62.26297,5.4696 9.53608,0.2574 19.07238,0.3671 28.61205,0.4249 11.32347,0.068 22.64601,0.068 33.96958,0.068 h 358.27414 c 11.30153,0 22.6033,0 33.90494,-0.068 9.51991,-0.058 19.03776,-0.1675 28.55548,-0.4249 20.73738,-0.5612 41.6572,-1.7851 62.16711,-5.4742 20.80436,-3.7422 40.16889,-9.8514 59.07154,-19.4823 18.58051,-9.46576 35.58148,-21.83198 50.32164,-36.58716 14.74018,-14.75057 27.09485,-31.76308 36.55368,-50.35629 9.6273,-18.92691 15.73317,-38.31682 19.47421,-59.15235 3.68331,-20.51801 4.90492,-41.44706 5.46493,-62.19484 0.25748,-9.52581 0.36717,-19.05161 0.42375,-28.57857 0.0648,-11.31088 0.0648,-22.62176 0.0648,-33.93264 V 367.80884" />
    </clipPath>
  </defs>
  <path
     d="m 924.0001,366.63029 c 0,-9.782 0,-19.565 -0.0561,-29.348 -0.049,-8.241 -0.144,-16.48 -0.368,-24.717 -0.484,-17.953 -1.543,-36.06 -4.736,-53.813 -3.238,-18.009 -8.5259,-34.77 -16.859,-51.133 -8.1919,-16.083 -18.893,-30.8 -31.661,-43.559 -12.765,-12.759 -27.486,-23.453 -43.575,-31.64 -16.38,-8.335 -33.159,-13.621 -51.188,-16.858 -17.755,-3.188 -35.867,-4.245 -53.82,-4.73 -8.2429,-0.223 -16.486,-0.317 -24.731,-0.368 -9.7879,-0.06 -19.576,-0.055 -29.364,-0.055 l -113.65,-0.407 h -84.999 l -111.64,0.407 c -9.8069,0 -19.614,-0.005 -29.421,0.055 -8.2619,0.051 -16.52,0.145 -24.779,0.368 -17.995,0.485 -36.148,1.543 -53.945,4.735 -18.053,3.236 -34.857,8.52 -51.259,16.849 -16.123,8.188 -30.876,18.883 -43.668,31.644 -12.79,12.758 -23.511,27.472 -31.718,43.552 -8.3559,16.371 -13.654,33.142 -16.9,51.161 -3.196,17.746 -4.255,35.847 -4.742,53.792 -0.222,8.238 -0.318,16.477 -0.368,24.717 -0.06,9.784 -0.563,21.937 -0.563,31.72 v 196 l 0.508,112.43 c 0,9.796 -0.004,19.592 0.055,29.388 0.05,8.252 0.146,16.502 0.369,24.751 0.486,17.976 1.547,36.109 4.746,53.886 3.245,18.033 8.5419,34.818 16.891,51.202 8.2079,16.106 18.931,30.842 31.722,43.619 12.791,12.777 27.54,23.485 43.66,31.684 16.412,8.346 33.224,13.639 51.288,16.88 17.789,3.193 35.936,4.252 53.924,4.737 8.2589,0.223 16.518,0.318 24.78,0.368 9.8069,0.059 19.613,0.059 29.42,0.059 h 310.29 c 9.7879,0 19.576,0 29.364,-0.059 8.2449,-0.05 16.488,-0.145 24.731,-0.368 17.96,-0.486 36.078,-1.546 53.841,-4.741 18.018,-3.241 34.789,-8.532 51.16,-16.873 16.092,-8.198 30.816,-18.908 43.582,-31.687 12.766,-12.775 23.466,-27.509 31.658,-43.612 8.3379,-16.392 13.626,-33.185 16.866,-51.23 3.19,-17.77 4.248,-35.896 4.733,-53.865 0.223,-8.25 0.318,-16.5 0.367,-24.751 0.0561,-9.796 0.0561,-19.592 0.0561,-29.388 v -310.8"
     style="fill:#000000;fill-rule:evenodd;paint-order:stroke fill markers;filter:url(#filter4765);opacity:0.3"
     id="path24-3"
     inkscape:connector-curvature="0" />
  <path
     d="m 924.0001,356.63 c 0,-9.782 0,-19.565 -0.0561,-29.348 -0.049,-8.241 -0.144,-16.48 -0.368,-24.717 -0.484,-17.953 -1.543,-36.06 -4.736,-53.813 -3.238,-18.009 -8.5259,-34.77 -16.859,-51.133 -8.1919,-16.083 -18.893,-30.8 -31.661,-43.559 -12.765,-12.759 -27.486,-23.453 -43.575,-31.64 -16.38,-8.335 -33.159,-13.621 -51.188,-16.858 -17.755,-3.188 -35.867,-4.245 -53.82,-4.73 -8.2429,-0.223 -16.486,-0.317 -24.731,-0.368 -9.7879,-0.06 -19.576,-0.055 -29.364,-0.055 l -113.65,-0.407 h -84.999 l -111.64,0.407 c -9.8069,0 -19.614,-0.005 -29.421,0.055 -8.2619,0.051 -16.52,0.145 -24.779,0.368 -17.995,0.485 -36.148,1.543 -53.945,4.735 -18.053,3.236 -34.857,8.52 -51.259,16.849 -16.123,8.188 -30.876,18.883 -43.668,31.644 -12.79,12.758 -23.511,27.472 -31.718,43.552 -8.3559,16.371 -13.654,33.142 -16.9,51.161 -3.196,17.746 -4.255,35.847 -4.742,53.792 -0.222,8.238 -0.318,16.477 -0.368,24.717 -0.06,9.784 -0.563,21.937 -0.563,31.72 v 196 l 0.508,112.43 c 0,9.796 -0.004,19.592 0.055,29.388 0.05,8.252 0.146,16.502 0.369,24.751 0.486,17.976 1.547,36.109 4.746,53.886 3.245,18.033 8.5419,34.818 16.891,51.202 8.2079,16.106 18.931,30.842 31.722,43.619 12.791,12.777 27.54,23.485 43.66,31.684 16.412,8.346 33.224,13.639 51.288,16.88 17.789,3.193 35.936,4.252 53.924,4.737 8.2589,0.223 16.518,0.318 24.78,0.368 9.8069,0.059 19.613,0.059 29.42,0.059 h 310.29 c 9.7879,0 19.576,0 29.364,-0.059 8.2449,-0.05 16.488,-0.145 24.731,-0.368 17.96,-0.486 36.078,-1.546 53.841,-4.741 18.018,-3.241 34.789,-8.532 51.16,-16.873 16.092,-8.198 30.816,-18.908 43.582,-31.687 12.766,-12.775 23.466,-27.509 31.658,-43.612 8.3379,-16.392 13.626,-33.185 16.866,-51.23 3.19,-17.77 4.248,-35.896 4.733,-53.865 0.223,-8.25 0.318,-16.5 0.367,-24.751 0.0561,-9.796 0.0561,-19.592 0.0561,-29.388 v -310.8"
     style="fill:url(#linearGradient846);fill-rule:evenodd;paint-order:stroke fill markers;fill-opacity:1"
     id="path24"
     inkscape:connector-curvature="0" />
  <style
     type="text/css"
     id="style22">.specularity {opacity:0.5;}
	.low-specularity {opacity:0.25;}
	.full-specularity {opacity:1;}
	.black {fill:#000000;}
	.white {fill:#ffffff;}
	.outline-big {stroke-width:16;stroke:none;opacity:0.1;fill:none;}
	.outline-small {stroke-width:8;stroke:none;opacity:0.2;fill:none;}
	.stroke-highlight {fill:none;stroke:none;opacity:0.2;}
       	.base-shadow 	{fill:black;opacity:75;}</style>
  <path
     style="opacity:0.7;fill:url(#linearGradient946);fill-opacity:1;stroke-width:2.38074088;filter:url(#filter1040)"
     d="m 785.95665,705.36551 c 6.52156,14.42358 -9.15241,42.33323 5.43012,43.29899 16.82323,1.11419 47.63077,-1.1262 49.0226,-21.11933 4.85237,-69.70033 -131.69694,-138.07931 -324.04705,-145.15601 -127.84384,-4.70346 -305.77034,24.54583 -305.81492,97.06346 -0.0379,61.82387 116.5031,123.73391 282.24045,131.04181 152.51922,6.72507 230.85392,-49.04096 236.04687,-97.88211 4.45575,-41.90743 -104.88416,-88.78227 -209.26929,-91.79306 -134.22205,-3.87137 -197.4416,35.0162 -190.05062,70.27219 7.01865,33.47976 96.08075,69.452 177.77208,69.39379 55.37927,-0.0394 115.87946,-24.50045 120.1163,-47.21412 4.5148,-24.20364 -49.07252,-55.53667 -107.83776,-57.75495 -38.14488,-1.43992 -84.09361,10.79801 -85.41599,31.62247 -0.70548,11.10939 25.0961,22.3209 40.03873,28.9873 4.71065,2.10156 10.55248,4.11595 20.28632,1.9764 5.35241,-1.17652 8.96679,-1.66446 13.34624,-3.29401 6.38497,-2.37577 5.6614,-5.81926 2.1354,-8.12521 -8.70316,-5.69178 -20.39908,-9.04188 -25.09096,-14.71326 -9.84426,-11.89946 11.64867,-18.04986 29.36178,-18.22685 36.64862,-0.36623 70.83212,21.55728 65.12972,36.4537 -5.86922,15.33229 -54.36522,29.10141 -91.82223,27.23049 -55.64304,-2.77929 -113.85946,-31.56216 -107.3039,-54.46097 7.50542,-26.21661 37.76809,-48.33849 153.74888,-45.01812 76.44077,2.18839 152.13333,41.71672 145.74106,73.12702 -7.83851,38.51699 -64.50265,81.09319 -193.59787,76.51196 -110.42288,-3.91861 -232.6323,-43.69347 -228.14372,-106.59726 2.64679,-37.09262 69.0215,-83.95311 251.44339,-81.47183 158.9632,2.1622 254.25484,56.57201 276.53437,105.84751 z"
     id="path829-2"
     inkscape:connector-curvature="0"
     sodipodi:nodetypes="ssssssssssssssssssssssssssss"
     transform="matrix(1,0,0,1.0119848,0,31.055782)" />
  <path
     style="fill:url(#linearGradient2203);fill-opacity:1;fill-rule:evenodd;stroke-width:1.05246603;paint-order:stroke fill markers;filter:url(#filter1068)"
     d="m 466.73633,78.386719 -117.4961,0.427734 c -10.32143,0 -20.64331,-0.0046 -30.96484,0.05859 -8.69537,0.05367 -17.38777,0.152018 -26.08008,0.386719 -18.93913,0.510446 -38.04465,1.622951 -56.77539,4.982422 -19.00016,3.40578 -36.68472,8.968378 -53.94726,17.734376 -16.96892,8.61758 -32.49585,19.87224 -45.95899,33.30274 -13.46104,13.42738 -24.74523,28.91424 -33.38281,45.83789 -8.794305,17.22991 -14.370805,34.88132 -17.78711,53.8457 -3.363681,18.67706 -4.477682,37.72678 -4.990234,56.61328 -0.233647,8.67021 -0.334095,17.34135 -0.386719,26.01367 -0.06315,10.29733 -0.59375,23.08849 -0.59375,33.38477 v 206.2832 l 0.535156,118.32813 c 0,10.30995 -0.0035,20.61972 0.05859,30.92968 0.05262,8.68495 0.153972,17.369 0.388672,26.05079 0.511499,18.91913 1.627302,38.0032 4.99414,56.71289 3.415253,18.97911 8.990193,36.64505 17.777345,53.88867 8.63853,16.95101 19.92463,32.46083 33.38672,45.9082 13.46209,13.44735 28.98347,24.71654 45.94922,33.34571 17.27307,8.78389 34.96872,14.35458 53.98047,17.76562 18.72231,3.36052 37.82019,4.47393 56.75195,4.98438 8.6922,0.23469 17.3846,0.33605 26.08008,0.38867 10.32143,0.0621 20.64331,0.0625 30.96484,0.0625 h 326.56836 c 10.30144,0 20.60277,-4e-4 30.9043,-0.0625 8.67748,-0.0526 17.35383,-0.15398 26.0293,-0.38867 18.90229,-0.51149 37.97105,-1.62566 56.66601,-4.98829 18.96333,-3.41104 36.61382,-8.98114 53.84375,-17.75976 16.93627,-8.62811 32.43336,-19.8982 45.86914,-33.34766 13.43579,-13.44526 24.69656,-28.95253 33.31836,-45.90039 8.77536,-17.25202 14.34196,-34.92622 17.75196,-53.91797 3.35736,-18.70232 4.47002,-37.77964 4.98047,-56.6914 0.23469,-8.68285 0.33513,-17.36688 0.38671,-26.05079 0.059,-10.30996 0.0586,-20.61973 0.0586,-30.92968 v -327.10547 -0.002 c 0,-10.29522 -0.002,-20.59241 -0.0606,-30.88868 -0.0516,-8.67337 -0.15096,-17.34451 -0.38672,-26.01367 -0.50939,-18.89492 -1.62385,-37.9523 -4.98437,-56.63672 -3.40789,-18.95387 -8.97382,-36.59296 -17.74414,-53.81445 -8.62169,-16.92681 -19.88438,-32.41728 -33.32227,-45.8457 -13.43473,-13.42841 -28.9282,-24.6823 -45.86133,-33.29883 -17.23939,-8.772308 -34.89813,-14.33536 -53.87304,-17.742193 -18.68653,-3.355261 -37.74766,-4.468069 -56.64258,-4.978515 -8.67537,-0.234701 -17.35172,-0.333043 -26.0293,-0.386719 -10.30143,-0.06315 -20.60276,-0.05859 -30.9043,-0.05859 L 556.19531,78.386719 Z m 5.21875,49.986331 h 79.14453 l 105.82422,0.3789 c 9.11399,0 18.2279,-0.005 27.34179,0.0508 7.67725,0.0475 15.35402,0.13611 23.0293,0.34375 16.71674,0.45161 33.5809,1.43583 50.11328,4.4043 16.7875,3.0141 32.41001,7.93623 47.66211,15.69727 14.98109,7.62324 28.68823,17.58053 40.57422,29.46093 11.88878,11.8804 21.85463,25.5831 29.48242,40.5586 7.75928,15.23623 12.68224,30.84244 15.69727,47.61133 2.97312,16.53051 3.95949,33.39068 4.41016,50.10742 0.20856,7.66979 0.29619,15.3421 0.34179,23.01562 0.0522,9.10933 0.0527,18.21973 0.0527,27.32813 l 0.002,0.002 v 289.39649 c 0,9.12144 -5.4e-4,18.24379 -0.0527,27.36523 -0.0456,7.68282 -0.13414,15.36497 -0.34179,23.04687 -0.4516,16.73163 -1.43788,33.60796 -4.40821,50.1543 -3.01688,16.8024 -7.93938,32.4399 -15.70312,47.70313 -7.62789,14.99413 -17.5916,28.71406 -29.47852,40.60937 -11.88692,11.89902 -25.59618,21.87043 -40.58007,29.50391 -15.24367,7.76663 -30.86142,12.69311 -47.63868,15.71094 -16.53982,2.97498 -33.40956,3.96347 -50.13281,4.41601 -7.67538,0.20764 -15.35019,0.2952 -23.02734,0.3418 -9.11399,0.0549 -18.2279,0.0547 -27.3418,0.0547 H 368.00195 c -9.13168,0 -18.26294,2.1e-4 -27.39453,-0.0547 -7.69307,-0.0465 -15.38404,-0.13416 -23.07422,-0.3418 -16.74933,-0.45161 -33.64495,-1.43898 -50.20898,-4.41211 -16.8201,-3.01782 -32.47596,-7.9455 -47.75781,-15.71679 -15.00996,-7.63442 -28.74215,-17.6048 -40.65235,-29.50196 -11.9102,-11.89717 -21.89441,-25.6183 -29.53711,-40.61523 -7.77417,-15.25578 -12.70696,-30.88651 -15.72851,-47.67774 -2.97871,-16.55285 -3.96738,-33.43567 -4.41992,-50.17383 -0.20764,-7.68097 -0.29715,-15.36312 -0.34375,-23.04687 -0.0552,-9.12144 -0.0508,-18.24379 -0.0508,-27.36523 l -0.47265,-104.6875 V 369.53711 c 0,-9.10933 0.46754,-20.42489 0.52344,-29.53516 0.0466,-7.67258 0.13704,-15.3449 0.34375,-23.01562 0.45347,-16.70929 1.43814,-33.5639 4.41406,-50.08789 3.02248,-16.77819 7.95583,-32.39305 15.73633,-47.63672 7.64186,-14.97272 17.62588,-28.67327 29.53515,-40.55274 11.91113,-11.88226 25.6474,-21.84068 40.66016,-29.46484 15.27254,-7.75546 30.92062,-12.67629 47.73047,-15.68945 16.57148,-2.9722 33.47266,-3.9566 50.22851,-4.40821 7.69027,-0.20764 15.38124,-0.29625 23.07422,-0.34375 9.13168,-0.0562 18.26294,-0.0508 27.39453,-0.0508 z"
     id="path24-4"
     clip-path="url(#clipPath2025-8)"
     inkscape:connector-curvature="0" />
  <g
     id="g1068"
     transform="matrix(1.710152,0,0,1.710152,-311.22598,-361.65681)">
    <path
       inkscape:connector-curvature="0"
       id="path833"
       d="m 447.50131,331.59776 -84.10565,41.85746 -37.49972,71.90845 9.6423,9.65963 c 0,0 38.84579,-86.72843 138.74838,-93.37457 63.03377,-4.1934 117.9681,6.46339 175.17599,72.44583 26.097,30.09977 47.01831,70.40029 46.8753,108.66941 -0.0675,18.02147 -10.61598,42.80537 7.23139,57.68704 8.29167,6.91383 31.60712,-6.97536 31.60712,-6.97536 l -25.71454,-124.50031 -57.85639,-90.6903 -102.85551,-43.4683 z m 54.10668,57.9564 -67.5,27.36804 -10.17834,44.5404 c 0,0 31.27298,-42.8388 78.21439,-43.46696 50.14438,-0.67105 108.52433,35.93739 117.85566,101.96074 10.98968,77.75686 -65.35712,149.72147 -65.35712,149.72147 l 88.39139,-67.61602 1.07211,-126.64585 -83.57093,-72.98322 z m -23.66634,63.02756 c 0,0 -23.41908,17.67394 -21.41545,45.64718 1.24068,17.32143 4.58776,29.67436 23.10629,46.67262 4.54736,4.17405 13.0904,10.37773 18.38582,7.21004 9.31807,-5.574 14.19073,-11.38379 14.19073,-11.38379 L 473.95059,488.3626 Z m -86.94859,2.0082 c 0,0 -20.82534,62.73134 12.4999,108.52539 16.32213,22.42917 40.40262,39.53707 65.53314,51.22774 44.06509,20.49897 75.38213,-3.79505 75.38213,-3.79505 L 429.2515,557.80279 Z m 152.66709,5.26319 -54.90943,3.48834 5.62455,31.6618 c 0,0 1.44899,-16.5679 19.82197,-14.75746 24.53371,2.41751 34.33934,20.04192 37.7664,41.58811 4.73774,29.78627 -32.6779,62.25016 -32.6779,62.25016 l 53.3026,-37.83308 -2.94562,-50.9797 z m -241.33587,17.17236 c 0,0 -6.8079,99.97467 63.21426,170.11282 91.92216,92.07447 192.85373,53.39595 192.85373,53.39595 0,0 -122.87165,-19.93842 -166.60447,-57.68837 -47.51394,-41.01382 -89.46352,-165.8204 -89.46352,-165.8204 z"
       style="fill:url(#linearGradient885);fill-opacity:1;stroke-width:2.63617492" />
    <path
       sodipodi:nodetypes="ssssssssssssssssssssssssssss"
       inkscape:connector-curvature="0"
       id="path829"
       d="m 710.32336,523.27254 c 4.62748,24.92321 -6.49425,73.14964 3.85303,74.81842 11.93721,1.92526 33.79722,-1.94601 34.78482,-36.49311 3.44308,-120.43857 -93.4478,-238.59394 -229.93308,-250.8221 -90.71377,-8.12735 -216.96454,42.41392 -216.99617,167.72065 -0.0269,106.82846 82.66675,213.80582 200.2685,226.43351 108.2226,11.62057 163.80632,-84.74027 167.49106,-169.13525 3.16166,-72.41389 -74.42233,-153.41119 -148.49057,-158.61368 -95.23954,-6.68954 -140.09804,60.50619 -134.85364,121.42672 4.9802,57.85129 68.17572,120.00948 126.14119,119.9089 39.2953,-0.0681 82.22424,-42.33552 85.23056,-81.58357 3.20355,-41.82266 -34.82024,-95.9645 -76.51811,-99.7976 -27.06635,-2.4881 -59.67005,18.65841 -60.60837,54.64201 -0.50058,19.19646 17.80737,38.56938 28.41016,50.08857 3.34252,3.63139 7.48769,7.11215 14.3945,3.41511 3.7979,-2.03295 6.36254,-2.8761 9.47006,-5.69187 4.53056,-4.10521 4.01714,-10.05538 1.51521,-14.03996 -6.17548,-9.83509 -14.47452,-15.62389 -17.80372,-25.42376 -6.98516,-20.56163 8.26551,-31.18921 20.83415,-31.49505 26.00465,-0.63282 50.26013,37.24988 46.2139,62.99013 -4.16461,26.49341 -38.57577,50.28573 -65.15403,47.05287 -39.48246,-4.80247 -80.79091,-54.53778 -76.1393,-94.10575 5.3256,-45.30096 26.79899,-83.52641 109.09513,-77.78899 54.23984,3.78142 107.94878,72.08435 103.41304,126.35973 -5.56195,66.55536 -45.76895,140.12486 -137.37065,132.20874 -78.35243,-6.77116 -165.0682,-75.50009 -161.88325,-184.1946 1.87807,-64.09412 48.97538,-145.06664 178.41592,-140.77911 112.79504,3.73618 180.41084,97.75351 196.21966,182.89904 z"
       style="fill:url(#linearGradient876);fill-opacity:1;stroke-width:2.63617492" />
  </g>
  <style
     id="style22-4"
     type="text/css">.specularity {opacity:0.5;}
	.low-specularity {opacity:0.25;}
	.full-specularity {opacity:1;}
	.black {fill:#000000;}
	.white {fill:#ffffff;}
	.outline-big {stroke-width:16;stroke:none;opacity:0.1;fill:none;}
	.outline-small {stroke-width:8;stroke:none;opacity:0.2;fill:none;}
	.stroke-highlight {fill:none;stroke:none;opacity:0.2;}
       	.base-shadow 	{fill:black;opacity:75;}</style>
</svg>
